<svg width="124" height="164" viewBox="0 0 124 164" fill="none" xmlns="http://www.w3.org/2000/svg">
<path d="M20.7485 148.863C19.7771 152.166 18.5143 155.177 16.96 157.897C15.4057 160.423 13.7543 161.88 12.0057 162.269C8.31425 163.24 5.49711 162.657 3.55425 160.52C1.6114 158.383 0.834255 155.663 1.22283 152.36C2.77711 140.703 5.30283 128.463 8.79997 115.64C12.2971 102.623 16.3771 89.7029 21.04 76.88C25.7028 63.8629 30.7543 51.3314 36.1943 39.2857C41.8285 27.0457 47.56 15.9714 53.3885 6.06286C54.36 4.50857 55.4285 3.63428 56.5943 3.44C57.9543 3.05143 59.12 3.05143 60.0914 3.44C61.0628 2.66286 62.2285 1.98285 63.5885 1.39999C64.9485 0.817143 66.3085 0.525718 67.6685 0.525718C68.2514 0.525718 68.8343 0.622859 69.4171 0.817143C70.1943 1.01143 70.9714 1.59428 71.7485 2.56571C72.5257 3.53714 73.4 4.99428 74.3714 6.93715C75.5371 8.68571 76.8971 11.3086 78.4514 14.8057C81.1714 24.7143 84.28 34.9143 87.7771 45.4057C91.4685 55.8971 95.2571 66.3886 99.1428 76.88C99.7257 76.6857 100.211 76.5886 100.6 76.5886C101.183 76.3943 101.766 76.2 102.349 76.0057C104.486 75.8114 106.914 75.9086 109.634 76.2971C112.354 76.6857 114.2 78.0457 115.171 80.3771C116.337 83.2914 116.143 85.8171 114.589 87.9543C113.034 90.0914 110.217 92.2286 106.137 94.3657C108.663 100.583 111.189 106.703 113.714 112.726C116.24 118.554 118.863 124.286 121.583 129.92C121.777 130.891 122.069 132.446 122.457 134.583C122.846 136.526 123.04 138.566 123.04 140.703C123.234 142.646 123.137 144.491 122.749 146.24C122.36 147.989 121.583 149.154 120.417 149.737C119.057 150.32 117.6 150.223 116.046 149.446C114.686 148.669 113.326 147.697 111.966 146.531C110.606 145.171 109.343 143.811 108.177 142.451C107.206 140.897 106.429 139.537 105.846 138.371C102.543 131.96 99.3371 125.549 96.2285 119.137C93.3143 112.531 90.4971 105.926 87.7771 99.32C79.6171 100.874 70.68 102.234 60.9657 103.4C51.4457 104.566 42.0228 105.343 32.6971 105.731C30.56 113.114 28.4228 120.4 26.2857 127.589C24.3428 134.583 22.4971 141.674 20.7485 148.863ZM62.1314 26.4629C53.1943 46.4743 45.4228 66.4857 38.8171 86.4971C51.8343 86.1086 65.7257 84.4571 80.4914 81.5429C73.4971 63.8629 67.3771 45.5029 62.1314 26.4629Z" fill="#E3C24C"/>
<path d="M20.7485 148.863L27.4641 150.838L27.511 150.679L27.5502 150.517L20.7485 148.863ZM16.96 157.897L22.9216 161.566L22.9812 161.469L23.0377 161.37L16.96 157.897ZM12.0057 162.269L10.4872 155.435L10.3551 155.465L10.2242 155.499L12.0057 162.269ZM3.55425 160.52L-1.62533 165.229L-1.62533 165.229L3.55425 160.52ZM1.22283 152.36L-5.71577 151.435L-5.72291 151.488L-5.72923 151.542L1.22283 152.36ZM8.79997 115.64L15.5533 117.482L15.5568 117.469L15.5603 117.456L8.79997 115.64ZM21.04 76.88L27.6185 79.2722L27.6243 79.2564L27.6299 79.2406L21.04 76.88ZM36.1943 39.2857L29.8356 36.3587L29.825 36.3816L29.8147 36.4046L36.1943 39.2857ZM53.3885 6.06286L47.4525 2.35287L47.4027 2.43264L47.355 2.51372L53.3885 6.06286ZM56.5943 3.44L57.745 10.3448L58.1361 10.2796L58.5173 10.1707L56.5943 3.44ZM60.0914 3.44L57.4917 9.93935L61.279 11.4543L64.4643 8.90608L60.0914 3.44ZM63.5885 1.39999L60.8311 -5.03404L60.8311 -5.03402L63.5885 1.39999ZM69.4171 0.817143L67.2035 7.45793L67.4586 7.54294L67.7194 7.60815L69.4171 0.817143ZM71.7485 2.56571L77.2146 -1.80714L77.2146 -1.80716L71.7485 2.56571ZM74.3714 6.93715L68.1104 10.0676L68.3053 10.4574L68.5471 10.8201L74.3714 6.93715ZM78.4514 14.8057L85.2017 12.9527L85.0622 12.4444L84.8481 11.9627L78.4514 14.8057ZM87.7771 45.4057L81.1363 47.6193L81.1547 47.6743L81.1739 47.7291L87.7771 45.4057ZM99.1428 76.88L92.5786 79.3112L94.9309 85.6626L101.356 83.5208L99.1428 76.88ZM100.6 76.5886V83.5886H101.736L102.814 83.2293L100.6 76.5886ZM102.349 76.0057L101.715 69.0345L100.906 69.108L100.135 69.3649L102.349 76.0057ZM115.171 80.3771L121.671 77.7774L121.652 77.731L121.633 77.6848L115.171 80.3771ZM114.589 87.9543L108.927 83.8371L108.927 83.8371L114.589 87.9543ZM106.137 94.3657L102.889 88.1649L97.2602 91.1133L99.6518 97.0004L106.137 94.3657ZM113.714 112.726L107.259 115.433L107.275 115.471L107.291 115.509L113.714 112.726ZM121.583 129.92L128.447 128.547L128.273 127.676L127.887 126.877L121.583 129.92ZM122.457 134.583L115.57 135.835L115.581 135.895L115.593 135.956L122.457 134.583ZM123.04 140.703H116.04V141.052L116.075 141.399L123.04 140.703ZM122.749 146.24L129.582 147.759L129.582 147.758L122.749 146.24ZM120.417 149.737L123.175 156.171L123.364 156.09L123.548 155.998L120.417 149.737ZM116.046 149.446L112.573 155.523L112.741 155.62L112.915 155.707L116.046 149.446ZM111.966 146.531L107.016 151.481L107.206 151.671L107.41 151.846L111.966 146.531ZM108.177 142.451L102.241 146.161L102.52 146.608L102.862 147.007L108.177 142.451ZM105.846 138.371L112.107 135.241L112.088 135.203L112.069 135.166L105.846 138.371ZM96.2285 119.137L89.8241 121.963L89.8749 122.078L89.9298 122.191L96.2285 119.137ZM87.7771 99.32L94.2499 96.6548L92.076 91.3753L86.4673 92.4436L87.7771 99.32ZM60.9657 103.4L60.1317 96.4499L60.1233 96.4509L60.1149 96.4519L60.9657 103.4ZM32.6971 105.731L32.4057 98.7375L27.3736 98.9472L25.9732 103.785L32.6971 105.731ZM26.2857 127.589L19.5759 125.594L19.5579 125.654L19.5411 125.715L26.2857 127.589ZM62.1314 26.4629L68.88 24.6036L63.697 5.7913L55.7398 23.6084L62.1314 26.4629ZM38.8171 86.4971L32.1699 84.3029L29.0375 93.7922L39.026 93.494L38.8171 86.4971ZM80.4914 81.5429L81.8468 88.4104L90.0923 86.783L87.0006 78.9678L80.4914 81.5429ZM14.033 146.888C13.2002 149.719 12.1413 152.221 10.8823 154.424L23.0377 161.37C24.8872 158.133 26.354 154.612 27.4641 150.838L14.033 146.888ZM10.9984 154.228C10.4671 155.092 10.0866 155.492 9.92433 155.635C9.78418 155.759 9.96999 155.55 10.4872 155.435L13.5242 169.102C18.022 168.102 20.9948 164.697 22.9216 161.566L10.9984 154.228ZM10.2242 155.499C9.09701 155.796 8.60441 155.718 8.54249 155.705C8.52382 155.701 8.57246 155.71 8.6483 155.754C8.72388 155.797 8.75257 155.832 8.73383 155.811L-1.62533 165.229C2.64469 169.926 8.51741 170.425 13.7871 169.038L10.2242 155.499ZM8.73384 155.811C8.36698 155.408 7.98325 154.807 8.17488 153.178L-5.72923 151.542C-6.31474 156.519 -5.14418 161.358 -1.62533 165.229L8.73384 155.811ZM8.16142 153.285C9.66956 141.974 12.1279 130.042 15.5533 117.482L2.04662 113.798C-1.52226 126.884 -4.11533 139.432 -5.71577 151.435L8.16142 153.285ZM15.5603 117.456C19.0045 104.636 23.0237 91.9081 27.6185 79.2722L14.4614 74.4878C9.73057 87.4976 5.58973 100.61 2.03969 113.824L15.5603 117.456ZM27.6299 79.2406C32.2325 66.3916 37.2143 54.0343 42.5738 42.1668L29.8147 36.4046C24.2942 48.6286 19.1731 61.3341 14.45 74.5194L27.6299 79.2406ZM42.5529 42.2127C48.1055 30.1503 53.7303 19.288 59.4221 9.612L47.355 2.51372C41.3896 12.6549 35.5516 23.9411 29.8356 36.3587L42.5529 42.2127ZM59.3245 9.77284C59.53 9.44417 59.5655 9.48379 59.3512 9.65913C59.1005 9.86425 58.5564 10.2095 57.745 10.3448L55.4435 -3.46476C51.4253 -2.79508 48.905 0.0289842 47.4525 2.35287L59.3245 9.77284ZM58.5173 10.1707C58.9064 10.0595 58.3934 10.3 57.4917 9.93935L62.6911 -3.05935C59.8465 -4.19716 57.0021 -3.95663 54.6712 -3.29067L58.5173 10.1707ZM64.4643 8.90608C64.8607 8.58897 65.4596 8.2139 66.346 7.834L60.8311 -5.03402C58.9975 -4.2482 57.265 -3.26325 55.7185 -2.02607L64.4643 8.90608ZM66.3459 7.83402C66.9119 7.59146 67.3372 7.52572 67.6685 7.52572V-6.47428C65.2799 -6.47428 62.9851 -5.95717 60.8311 -5.03404L66.3459 7.83402ZM67.6685 7.52572C67.4592 7.52572 67.2956 7.48862 67.2035 7.45793L71.6307 -5.82365C70.3729 -6.2429 69.0436 -6.47428 67.6685 -6.47428V7.52572ZM67.7194 7.60815C67.0322 7.43635 66.5857 7.15217 66.3828 7.00001C66.189 6.85464 66.1651 6.79183 66.2825 6.93858L77.2146 -1.80716C75.9772 -3.35389 74.0005 -5.25247 71.1148 -5.97386L67.7194 7.60815ZM66.2825 6.93856C66.6058 7.3428 67.2223 8.29141 68.1104 10.0676L80.6324 3.80666C79.5776 1.69716 78.4455 -0.268524 77.2146 -1.80714L66.2825 6.93856ZM68.5471 10.8201C69.383 12.0739 70.5535 14.271 72.0547 17.6487L84.8481 11.9627C83.2407 8.34613 81.6913 5.29751 80.1957 3.05424L68.5471 10.8201ZM71.7011 16.6587C74.4568 26.6972 77.6024 37.0176 81.1363 47.6193L94.4179 43.1921C90.9575 32.8109 87.886 22.7314 85.2017 12.9527L71.7011 16.6587ZM81.1739 47.7291C84.8781 58.2568 88.6797 68.7841 92.5786 79.3112L105.707 74.4488C101.835 63.993 98.059 53.5375 94.3803 43.0824L81.1739 47.7291ZM101.356 83.5208C101.435 83.4946 101.417 83.5056 101.317 83.5255C101.225 83.544 100.972 83.5886 100.6 83.5886V69.5886C99.1527 69.5886 97.8615 69.9285 96.9293 70.2392L101.356 83.5208ZM102.814 83.2293C103.396 83.0351 103.979 82.8408 104.562 82.6465L100.135 69.3649C99.5521 69.5592 98.9692 69.7535 98.3863 69.9478L102.814 83.2293ZM102.982 82.977C104.452 82.8433 106.32 82.8948 108.644 83.2268L110.624 69.3675C107.508 68.9224 104.519 68.7795 101.715 69.0345L102.982 82.977ZM108.644 83.2268C108.869 83.259 108.98 83.2975 109.007 83.3077C109.029 83.3161 108.984 83.3011 108.906 83.244C108.869 83.2169 108.832 83.1855 108.797 83.1509C108.762 83.1164 108.735 83.0841 108.714 83.0574C108.672 83.0015 108.678 82.9928 108.71 83.0694L121.633 77.6848C119.616 72.843 115.528 70.068 110.624 69.3675L108.644 83.2268ZM108.672 82.9769C108.95 83.6718 108.918 83.9506 108.921 83.9203C108.922 83.9061 108.928 83.8657 108.945 83.8207C108.961 83.7776 108.968 83.7819 108.927 83.8371L120.25 92.0715C123.504 87.5974 123.535 82.437 121.671 77.7774L108.672 82.9769ZM108.927 83.8371C108.315 84.6796 106.625 86.2082 102.889 88.1649L109.385 100.567C113.81 98.2489 117.754 95.5033 120.25 92.0715L108.927 83.8371ZM99.6518 97.0004C102.187 103.241 104.723 109.385 107.259 115.433L120.17 110.019C117.654 104.021 115.139 97.9247 112.622 91.7311L99.6518 97.0004ZM107.291 115.509C109.854 121.424 112.517 127.242 115.279 132.963L127.887 126.877C125.209 121.33 122.626 115.685 120.137 109.942L107.291 115.509ZM114.719 131.293C114.9 132.2 115.182 133.702 115.57 135.835L129.344 133.331C128.955 131.189 128.654 129.583 128.447 128.547L114.719 131.293ZM115.593 135.956C115.884 137.413 116.04 138.991 116.04 140.703H130.04C130.04 138.141 129.807 135.639 129.321 133.21L115.593 135.956ZM116.075 141.399C116.202 142.668 116.128 143.762 115.915 144.722L129.582 147.758C130.146 145.221 130.267 142.623 130.005 140.006L116.075 141.399ZM115.915 144.721C115.859 144.977 115.846 144.848 116.05 144.543C116.285 144.191 116.699 143.77 117.287 143.476L123.548 155.998C127.236 154.154 128.917 150.75 129.582 147.759L115.915 144.721ZM117.66 143.303C117.982 143.165 118.381 143.091 118.77 143.117C119.127 143.141 119.277 143.235 119.176 143.185L112.915 155.707C115.955 157.227 119.584 157.71 123.175 156.171L117.66 143.303ZM119.519 143.368C118.593 142.839 117.592 142.135 116.521 141.217L107.41 151.846C109.059 153.26 110.778 154.498 112.573 155.523L119.519 143.368ZM116.915 141.582C115.673 140.339 114.533 139.11 113.492 137.896L102.862 147.007C104.153 148.513 105.538 150.004 107.016 151.481L116.915 141.582ZM114.113 138.741C113.216 137.306 112.56 136.147 112.107 135.241L99.5847 141.502C100.297 142.927 101.195 144.488 102.241 146.161L114.113 138.741ZM112.069 135.166C108.791 128.804 105.611 122.443 102.527 116.083L89.9298 122.191C93.0634 128.654 96.2944 135.116 99.6229 141.577L112.069 135.166ZM102.633 116.312C99.7419 109.759 96.9475 103.206 94.2499 96.6548L81.3044 101.985C84.0467 108.645 86.8866 115.304 89.8241 121.963L102.633 116.312ZM86.4673 92.4436C78.4897 93.9632 69.7137 95.3 60.1317 96.4499L61.7997 110.35C71.6463 109.169 80.7445 107.785 89.0869 106.196L86.4673 92.4436ZM60.1149 96.4519C50.7756 97.5955 41.5394 98.3569 32.4057 98.7375L32.9885 112.725C42.5063 112.329 52.1158 111.536 61.8165 110.348L60.1149 96.4519ZM25.9732 103.785C23.8406 111.152 21.7082 118.422 19.5759 125.594L32.9954 129.583C35.1375 122.378 37.2794 115.076 39.4211 107.678L25.9732 103.785ZM19.5411 125.715C17.5776 132.783 15.7129 139.948 13.9469 147.208L27.5502 150.517C29.2813 143.401 31.108 136.382 33.0303 129.462L19.5411 125.715ZM55.7398 23.6084C46.7102 43.8269 38.8525 64.0585 32.1699 84.3029L45.4643 88.6914C51.9931 68.9129 59.6783 49.1217 68.523 29.3173L55.7398 23.6084ZM39.026 93.494C52.4821 93.0924 66.76 91.388 81.8468 88.4104L79.136 74.6753C64.6914 77.5262 51.1864 79.1248 38.6083 79.5003L39.026 93.494ZM87.0006 78.9678C80.1024 61.5307 74.0614 43.4102 68.88 24.6036L55.3828 28.3222C60.6929 47.5955 66.8919 66.195 73.9822 84.1179L87.0006 78.9678Z" fill="#E3C24C"/>
</svg>
