<svg width="527" height="164" viewBox="0 0 527 164" fill="none" xmlns="http://www.w3.org/2000/svg">
<path d="M20.9567 148.863C19.9853 152.166 18.7224 155.177 17.1682 157.897C15.6139 160.423 13.9624 161.88 12.2139 162.269C8.52245 163.24 5.7053 162.657 3.76245 160.52C1.81959 158.383 1.04245 155.663 1.43102 152.36C2.9853 140.703 5.51102 128.463 9.00816 115.64C12.5053 102.623 16.5853 89.7029 21.2482 76.88C25.911 63.8629 30.9624 51.3314 36.4024 39.2857C42.0367 27.0457 47.7682 15.9714 53.5967 6.06286C54.5682 4.50857 55.6367 3.63428 56.8024 3.44C58.1624 3.05143 59.3282 3.05143 60.2996 3.44C61.271 2.66286 62.4367 1.98285 63.7967 1.39999C65.1567 0.817143 66.5167 0.525718 67.8767 0.525718C68.4596 0.525718 69.0424 0.622859 69.6253 0.817143C70.4024 1.01143 71.1796 1.59428 71.9567 2.56571C72.7339 3.53714 73.6082 4.99428 74.5796 6.93715C75.7453 8.68571 77.1053 11.3086 78.6596 14.8057C81.3796 24.7143 84.4882 34.9143 87.9853 45.4057C91.6767 55.8971 95.4653 66.3886 99.351 76.88C99.9339 76.6857 100.42 76.5886 100.808 76.5886C101.391 76.3943 101.974 76.2 102.557 76.0057C104.694 75.8114 107.122 75.9086 109.842 76.2971C112.562 76.6857 114.408 78.0457 115.38 80.3771C116.545 83.2914 116.351 85.8171 114.797 87.9543C113.242 90.0914 110.425 92.2286 106.345 94.3657C108.871 100.583 111.397 106.703 113.922 112.726C116.448 118.554 119.071 124.286 121.791 129.92C121.985 130.891 122.277 132.446 122.665 134.583C123.054 136.526 123.248 138.566 123.248 140.703C123.442 142.646 123.345 144.491 122.957 146.24C122.568 147.989 121.791 149.154 120.625 149.737C119.265 150.32 117.808 150.223 116.254 149.446C114.894 148.669 113.534 147.697 112.174 146.531C110.814 145.171 109.551 143.811 108.385 142.451C107.414 140.897 106.637 139.537 106.054 138.371C102.751 131.96 99.5453 125.549 96.4367 119.137C93.5224 112.531 90.7053 105.926 87.9853 99.32C79.8253 100.874 70.8882 102.234 61.1739 103.4C51.6539 104.566 42.231 105.343 32.9053 105.731C30.7682 113.114 28.631 120.4 26.4939 127.589C24.551 134.583 22.7053 141.674 20.9567 148.863ZM62.3396 26.4629C53.4024 46.4743 45.631 66.4857 39.0253 86.4971C52.0424 86.1086 65.9339 84.4571 80.6996 81.5429C73.7053 63.8629 67.5853 45.5029 62.3396 26.4629ZM202.505 41.9086C203.282 42.88 203.671 44.1429 203.671 45.6971C203.865 47.0571 203.671 48.2229 203.088 49.1943C202.117 51.3314 200.465 52.1086 198.134 51.5257C194.054 50.5543 189.78 50.1657 185.311 50.36C180.842 50.5543 176.374 52.3029 171.905 55.6057C167.437 58.9086 163.94 63.7657 161.414 70.1771C158.888 76.3943 157.625 82.9029 157.625 89.7029C157.625 96.3086 159.18 102.04 162.288 106.897C165.591 111.56 169.768 114.96 174.82 117.097C177.928 118.457 181.425 119.234 185.311 119.429C189.197 119.623 193.082 119.526 196.968 119.137C201.048 118.554 205.031 117.777 208.917 116.806C212.802 115.64 216.494 114.377 219.991 113.017C221.157 112.629 222.225 112.726 223.197 113.309C224.362 113.891 225.14 114.669 225.528 115.64C226.5 118.166 226.014 120.691 224.071 123.217C221.74 125.743 218.631 127.977 214.745 129.92C210.86 131.863 206.585 133.417 201.922 134.583C197.26 135.749 192.5 136.429 187.642 136.623C182.785 136.623 178.22 136.04 173.945 134.874C167.922 133.32 162.774 131.086 158.5 128.171C154.42 125.063 151.02 121.566 148.3 117.68C145.58 113.6 143.54 109.326 142.18 104.857C140.82 100.194 140.042 95.4343 139.848 90.5771C139.46 78.92 141.694 68.4286 146.551 59.1029C151.602 49.7771 158.597 42.88 167.534 38.4114C174.14 35.1086 180.745 33.8457 187.351 34.6229C194.151 35.2057 199.202 37.6343 202.505 41.9086ZM388.655 159.354C386.518 159.354 384.284 157.703 381.952 154.4C379.815 151.097 378.65 147.891 378.455 144.783C376.901 133.514 374.958 120.4 372.627 105.44C370.49 90.2857 367.575 72.4114 363.884 51.8171C358.055 62.8914 352.324 73.8686 346.69 84.7486C341.055 95.6286 335.421 106.509 329.787 117.389C326.29 124.189 322.695 127.589 319.004 127.589C313.564 127.589 309.29 124.771 306.181 119.137C299.381 109.229 292.29 100 284.907 91.4514C277.718 82.7086 270.238 74.0629 262.467 65.5143C262.078 78.5314 262.175 91.3543 262.758 103.983C263.535 116.417 264.798 128.56 266.547 140.411C266.935 142.549 266.644 144.491 265.672 146.24C264.895 147.794 264.021 148.766 263.05 149.154C260.33 150.126 257.61 149.543 254.89 147.406C252.17 145.269 250.518 142.937 249.935 140.411C248.187 133.417 246.924 125.646 246.147 117.097C245.37 108.549 244.787 99.9029 244.398 91.16C244.204 82.4171 244.107 73.7714 244.107 65.2229C244.107 56.6743 244.204 48.9029 244.398 41.9086C244.398 34.1371 246.924 30.2514 251.975 30.2514C255.084 30.2514 257.707 31.4171 259.844 33.7486C261.981 35.8857 263.147 38.9943 263.341 43.0743C273.055 52.7886 282.187 62.7943 290.735 73.0914C299.478 83.1943 307.93 93.4914 316.09 103.983C322.89 91.7429 329.787 79.2114 336.781 66.3886C343.775 53.3714 351.644 40.7429 360.387 28.5029C360.775 26.3657 361.844 24.2286 363.592 22.0914C365.341 19.76 367.284 18.2057 369.421 17.4286C371.558 16.6514 373.792 17.5257 376.124 20.0514C378.455 22.5771 380.01 25.4914 380.787 28.7943C384.09 48.4171 386.907 68.04 389.238 87.6629C391.764 107.286 394.192 126.909 396.524 146.531C396.912 150.223 396.232 153.331 394.484 155.857C392.735 158.189 390.792 159.354 388.655 159.354ZM505.329 76.2971C506.106 78.24 505.329 80.1829 502.998 82.1257C500.666 83.8743 496.975 85.04 491.923 85.6229C483.181 86.7886 474.243 88.0514 465.112 89.4114C455.981 90.5771 446.655 91.84 437.135 93.2C436.746 103.109 436.746 113.017 437.135 122.926C441.603 122.926 446.946 122.537 453.163 121.76C459.575 120.789 466.083 119.623 472.689 118.263C479.295 116.903 485.609 115.543 491.632 114.183C497.849 112.629 503.095 111.366 507.369 110.394C509.506 109.811 511.741 109.423 514.072 109.229C516.403 108.84 518.443 108.84 520.192 109.229C522.135 109.423 523.689 110.103 524.855 111.269C526.021 112.434 526.603 114.086 526.603 116.223C526.603 116.806 525.923 117.68 524.563 118.846C523.203 120.011 521.455 121.274 519.318 122.634C517.375 123.8 515.238 124.966 512.906 126.131C510.769 127.103 508.826 127.88 507.078 128.463C495.032 132.349 483.181 135.749 471.523 138.663C459.866 141.383 448.501 142.84 437.426 143.034C431.015 143.229 426.158 141.577 422.855 138.08C419.552 134.389 417.803 129.143 417.609 122.343C417.221 112.823 417.221 103.206 417.609 93.4914C414.306 91.5486 412.655 88.8286 412.655 85.3314C413.043 81.64 414.792 79.1143 417.901 77.7543C418.289 72.12 418.581 66.4857 418.775 60.8514C418.969 55.0229 419.261 49.2914 419.649 43.6571C417.512 43.2686 415.569 42.2 413.821 40.4514C412.266 38.7029 411.489 36.76 411.489 34.6229C411.489 32.8743 411.878 31.32 412.655 29.96C413.432 28.4057 414.889 27.24 417.026 26.4629C420.523 25.6857 424.798 24.8114 429.849 23.84C434.901 22.8686 440.049 21.9943 445.295 21.2171C450.735 20.44 455.883 19.76 460.741 19.1771C465.792 18.5943 470.066 18.2057 473.563 18.0114C477.643 17.6229 481.529 18.0114 485.221 19.1771C489.106 20.3429 492.701 22.5771 496.003 25.88C496.781 28.6 496.198 30.64 494.255 32C492.506 33.36 490.175 34.2343 487.261 34.6229C484.346 35.0114 480.849 35.4971 476.769 36.08C472.689 36.4686 468.415 36.9543 463.946 37.5371C459.672 38.12 455.301 38.7029 450.832 39.2857C446.558 39.6743 442.478 40.16 438.592 40.7429C438.592 41.1314 438.592 41.6171 438.592 42.2C438.786 42.5886 438.883 42.9771 438.883 43.3657C438.495 48.4171 438.203 53.4686 438.009 58.52C437.815 63.5714 437.621 68.6229 437.426 73.6743C445.586 72.3143 453.941 71.1486 462.489 70.1771C471.038 69.0114 477.838 68.2343 482.889 67.8457C486.969 67.4571 490.952 67.9429 494.838 69.3029C498.723 70.6629 502.221 72.9943 505.329 76.2971Z" fill="#E3C24C"/>
</svg>
